ffmpeg started on 2025-06-04 at 21:34:41
Report written to "D:\Convert\FFMetrics\reports\psnr_report-6.txt"
Log level: 32
Command line:
ffmpeg -hide_banner -nostdin -i "G:\\\xc0\xed\xe8\xec\xe5\\\xce\xed\xe3\xee\xe8\xed\xe3\xe8\\!_36_\xce\xf1\xe5\xed\xfc_2024\\DreamCast\\\xc5\xf1\xeb\xe8 \xe1\xfb \xec\xee\xff \xe6\xe5\xed\xe0 \xf1\xf2\xe0\xeb\xe0 \xec\xeb\xe0\xe4\xf8\xe5\xea\xeb\xe0\xf1\xf1\xed\xe8\xf6\xe5\xe9\\[DC] Tsuma Shougakusei ni Naru - 12_Telegram_HEVC.mkv" -i "G:\\\xc0\xed\xe8\xec\xe5\\\xce\xed\xe3\xee\xe8\xed\xe3\xe8\\!_36_\xce\xf1\xe5\xed\xfc_2024\\DreamCast\\\xc5\xf1\xeb\xe8 \xe1\xfb \xec\xee\xff \xe6\xe5\xed\xe0 \xf1\xf2\xe0\xeb\xe0 \xec\xeb\xe0\xe4\xf8\xe5\xea\xeb\xe0\xf1\xf1\xed\xe8\xf6\xe5\xe9\\[DC] Tsuma Shougakusei ni Naru - 12_Telegram.mp4" -lavfi "[0:v]settb=AVTB,setpts=PTS-STARTPTS,format=pix_fmts=yuv420p10,fps=24000/1001,scale=1920:1080:flags=bicubic[main];[1:v]settb=AVTB,setpts=PTS-STARTPTS,format=pix_fmts=yuv420p,fps=24000/1001,scale=1920:1080:flags=bicubic[ref];[main][ref]psnr=eof_action=endall:stats_file='D\\:/Convert/FFMetrics/logs/psnr_logfile-6.txt'" -f null -
Input #0, matroska,webm, from 'G:\Аниме\Онгоинги\!_36_Осень_2024\DreamCast\Если бы моя жена стала младшеклассницей\[DC] Tsuma Shougakusei ni Naru - 12_Telegram_HEVC.mkv':
  Metadata:
    COMPATIBLE_BRANDS: isomiso2avc1mp41
    MAJOR_BRAND     : isom
    MINOR_VERSION   : 512
    ENCODER         : Lavf61.7.100
  Duration: 00:23:46.69, start: -0.021000, bitrate: 999 kb/s
  Stream #0:0: Video: hevc (Main 10), yuv420p10le(tv, bt709, progressive), 1920x1080 [SAR 1:1 DAR 16:9], 23.98 fps, 23.98 tbr, 1k tbn (default)
      Metadata:
        HANDLER_NAME    : VideoHandler
        VENDOR_ID       : [0][0][0][0]
        ENCODER         : Lavc61.19.100 libx265
        BPS             : 802579
        DURATION        : 00:23:46.591708333
        NUMBER_OF_FRAMES: 34204
        NUMBER_OF_BYTES : 143119113
        _STATISTICS_WRITING_APP: mkvpropedit v66.0.0 ('Josie') 64-bit
        _STATISTICS_WRITING_DATE_UTC: 2025-05-30 16:23:32
        _STATISTICS_TAGS: BPS DURATION NUMBER_OF_FRAMES NUMBER_OF_BYTES
  Stream #0:1: Audio: aac (LC), 48000 Hz, stereo, fltp (default)
      Metadata:
        HANDLER_NAME    : SoundHandler
        VENDOR_ID       : [0][0][0][0]
        ENCODER         : Lavc61.19.100 aac
        BPS             : 193315
        DURATION        : 00:23:46.688000000
        NUMBER_OF_FRAMES: 66877
        NUMBER_OF_BYTES : 34475098
        _STATISTICS_WRITING_APP: mkvpropedit v66.0.0 ('Josie') 64-bit
        _STATISTICS_WRITING_DATE_UTC: 2025-05-30 16:23:32
        _STATISTICS_TAGS: BPS DURATION NUMBER_OF_FRAMES NUMBER_OF_BYTES
Input #1, mov,mp4,m4a,3gp,3g2,mj2, from 'G:\Аниме\Онгоинги\!_36_Осень_2024\DreamCast\Если бы моя жена стала младшеклассницей\[DC] Tsuma Shougakusei ni Naru - 12_Telegram.mp4':
  Metadata:
    major_brand     : isom
    minor_version   : 512
    compatible_brands: isomiso2avc1mp41
    encoder         : Lavf61.1.100
  Duration: 00:23:46.66, start: 0.000000, bitrate: 3599 kb/s
  Stream #1:0[0x1](und): Video: h264 (High) (avc1 / 0x31637661), yuv420p(tv, bt709, progressive), 1920x1080 [SAR 1:1 DAR 16:9], 3451 kb/s, 23.98 fps, 23.98 tbr, 24k tbn (default)
      Metadata:
        handler_name    : VideoHandler
        vendor_id       : [0][0][0][0]
        encoder         : Lavc61.3.100 h264_qsv
  Stream #1:1[0x2](und): Audio: aac (HE-AACv2) (mp4a / 0x6134706D), 48000 Hz, stereo, fltp, 144 kb/s (default)
      Metadata:
        handler_name    : SoundHandler
        vendor_id       : [0][0][0][0]
Stream mapping:
  Stream #0:0 (hevc) -> settb:default
  Stream #1:0 (h264) -> settb:default
  psnr:default -> Stream #0:0 (wrapped_avframe)
  Stream #0:1 -> #0:1 (aac (native) -> pcm_s16le (native))
Output #0, null, to 'pipe:':
  Metadata:
    COMPATIBLE_BRANDS: isomiso2avc1mp41
    MAJOR_BRAND     : isom
    MINOR_VERSION   : 512
    encoder         : Lavf61.7.100
  Stream #0:0: Video: wrapped_avframe, yuv420p10le(tv, bt709, progressive), 1920x1080 [SAR 1:1 DAR 16:9], q=2-31, 200 kb/s, 23.98 fps, 23.98 tbn
      Metadata:
        encoder         : Lavc61.19.100 wrapped_avframe
  Stream #0:1: Audio: pcm_s16le, 48000 Hz, stereo, s16, 1536 kb/s (default)
      Metadata:
        HANDLER_NAME    : SoundHandler
        VENDOR_ID       : [0][0][0][0]
        _STATISTICS_TAGS: BPS DURATION NUMBER_OF_FRAMES NUMBER_OF_BYTES
        BPS             : 193315
        DURATION        : 00:23:46.688000000
        NUMBER_OF_FRAMES: 66877
        NUMBER_OF_BYTES : 34475098
        _STATISTICS_WRITING_APP: mkvpropedit v66.0.0 ('Josie') 64-bit
        _STATISTICS_WRITING_DATE_UTC: 2025-05-30 16:23:32
        encoder         : Lavc61.19.100 pcm_s16le
frame=  168 fps=0.0 q=-0.0 size=N/A time=00:00:07.00 bitrate=N/A speed=13.9x    frame=  432 fps=422 q=-0.0 size=N/A time=00:00:18.01 bitrate=N/A speed=17.6x    frame=  687 fps=444 q=-0.0 size=N/A time=00:00:28.65 bitrate=N/A speed=18.5x    frame=  943 fps=460 q=-0.0 size=N/A time=00:00:39.33 bitrate=N/A speed=19.2x    frame= 1210 fps=471 q=-0.0 size=N/A time=00:00:50.46 bitrate=N/A speed=19.7x    frame= 1430 fps=463 q=-0.0 size=N/A time=00:00:59.64 bitrate=N/A speed=19.3x    frame= 1594 fps=442 q=-0.0 size=N/A time=00:01:06.48 bitrate=N/A speed=18.4x    frame= 1719 fps=418 q=-0.0 size=N/A time=00:01:11.69 bitrate=N/A speed=17.4x    frame= 1878 fps=405 q=-0.0 size=N/A time=00:01:18.32 bitrate=N/A speed=16.9x    frame= 2135 fps=414 q=-0.0 size=N/A time=00:01:29.04 bitrate=N/A speed=17.3x    frame= 2354 fps=416 q=-0.0 size=N/A time=00:01:38.18 bitrate=N/A speed=17.3x    frame= 2538 fps=411 q=-0.0 size=N/A time=00:01:45.85 bitrate=N/A speed=17.1x    frame= 2706 fps=404 q=-0.0 size=N/A time=00:01:52.86 bitrate=N/A speed=16.8x    frame= 2916 fps=404 q=-0.0 size=N/A time=00:02:01.62 bitrate=N/A speed=16.9x    frame= 3088 fps=399 q=-0.0 size=N/A time=00:02:08.79 bitrate=N/A speed=16.7x    frame= 3235 fps=392 q=-0.0 size=N/A time=00:02:14.92 bitrate=N/A speed=16.4x    frame= 3416 fps=390 q=-0.0 size=N/A time=00:02:22.47 bitrate=N/A speed=16.3x    frame= 3660 fps=395 q=-0.0 size=N/A time=00:02:32.65 bitrate=N/A speed=16.5x    frame= 3933 fps=401 q=-0.0 size=N/A time=00:02:44.03 bitrate=N/A speed=16.7x    frame= 4196 fps=407 q=-0.0 size=N/A time=00:02:55.00 bitrate=N/A speed=  17x    frame= 4480 fps=414 q=-0.0 size=N/A time=00:03:06.85 bitrate=N/A speed=17.3x    frame= 4755 fps=420 q=-0.0 size=N/A time=00:03:18.32 bitrate=N/A speed=17.5x    frame= 5015 fps=423 q=-0.0 size=N/A time=00:03:29.16 bitrate=N/A speed=17.6x    frame= 5272 fps=426 q=-0.0 size=N/A time=00:03:39.88 bitrate=N/A speed=17.8x    frame= 5529 fps=429 q=-0.0 size=N/A time=00:03:50.60 bitrate=N/A speed=17.9x    frame= 5801 fps=433 q=-0.0 size=N/A time=00:04:01.95 bitrate=N/A speed=18.1x    frame= 6037 fps=434 q=-0.0 size=N/A time=00:04:11.79 bitrate=N/A speed=18.1x    frame= 6314 fps=438 q=-0.0 size=N/A time=00:04:23.34 bitrate=N/A speed=18.2x    frame= 6560 fps=439 q=-0.0 size=N/A time=00:04:33.60 bitrate=N/A speed=18.3x    frame= 6789 fps=439 q=-0.0 size=N/A time=00:04:43.15 bitrate=N/A speed=18.3x    frame= 7049 fps=441 q=-0.0 size=N/A time=00:04:54.00 bitrate=N/A speed=18.4x    frame= 7307 fps=443 q=-0.0 size=N/A time=00:05:04.76 bitrate=N/A speed=18.5x    frame= 7573 fps=445 q=-0.0 size=N/A time=00:05:15.85 bitrate=N/A speed=18.6x    frame= 7848 fps=448 q=-0.0 size=N/A time=00:05:27.32 bitrate=N/A speed=18.7x    frame= 8116 fps=450 q=-0.0 size=N/A time=00:05:38.50 bitrate=N/A speed=18.8x    frame= 8387 fps=452 q=-0.0 size=N/A time=00:05:49.80 bitrate=N/A speed=18.8x    frame= 8649 fps=454 q=-0.0 size=N/A time=00:06:00.73 bitrate=N/A speed=18.9x    frame= 8871 fps=453 q=-0.0 size=N/A time=00:06:09.99 bitrate=N/A speed=18.9x    frame= 9119 fps=453 q=-0.0 size=N/A time=00:06:20.33 bitrate=N/A speed=18.9x    frame= 9358 fps=454 q=-0.0 size=N/A time=00:06:30.30 bitrate=N/A speed=18.9x    frame= 9626 fps=456 q=-0.0 size=N/A time=00:06:41.52 bitrate=N/A speed=  19x    frame= 9880 fps=456 q=-0.0 size=N/A time=00:06:52.07 bitrate=N/A speed=  19x    frame=10098 fps=455 q=-0.0 size=N/A time=00:07:01.17 bitrate=N/A speed=  19x    frame=10350 fps=456 q=-0.0 size=N/A time=00:07:11.68 bitrate=N/A speed=  19x    frame=10610 fps=457 q=-0.0 size=N/A time=00:07:22.52 bitrate=N/A speed=19.1x    frame=10812 fps=456 q=-0.0 size=N/A time=00:07:30.95 bitrate=N/A speed=  19x    frame=11053 fps=456 q=-0.0 size=N/A time=00:07:41.00 bitrate=N/A speed=  19x    frame=11301 fps=457 q=-0.0 size=N/A time=00:07:51.34 bitrate=N/A speed=  19x    frame=11575 fps=458 q=-0.0 size=N/A time=00:08:02.77 bitrate=N/A speed=19.1x    frame=11829 fps=459 q=-0.0 size=N/A time=00:08:13.36 bitrate=N/A speed=19.1x    frame=12110 fps=461 q=-0.0 size=N/A time=00:08:25.08 bitrate=N/A speed=19.2x    frame=12328 fps=460 q=-0.0 size=N/A time=00:08:34.18 bitrate=N/A speed=19.2x    frame=12550 fps=459 q=-0.0 size=N/A time=00:08:43.43 bitrate=N/A speed=19.2x    frame=12762 fps=458 q=-0.0 size=N/A time=00:08:52.28 bitrate=N/A speed=19.1x    frame=12959 fps=457 q=-0.0 size=N/A time=00:09:00.49 bitrate=N/A speed=19.1x    frame=13183 fps=457 q=-0.0 size=N/A time=00:09:09.84 bitrate=N/A speed=19.1x    frame=13435 fps=457 q=-0.0 size=N/A time=00:09:20.35 bitrate=N/A speed=19.1x    frame=13704 fps=458 q=-0.0 size=N/A time=00:09:31.57 bitrate=N/A speed=19.1x    frame=13953 fps=459 q=-0.0 size=N/A time=00:09:41.95 bitrate=N/A speed=19.1x    frame=14221 fps=460 q=-0.0 size=N/A time=00:09:53.13 bitrate=N/A speed=19.2x    frame=14462 fps=460 q=-0.0 size=N/A time=00:10:03.18 bitrate=N/A speed=19.2x    frame=14722 fps=461 q=-0.0 size=N/A time=00:10:14.03 bitrate=N/A speed=19.2x    frame=15005 fps=462 q=-0.0 size=N/A time=00:10:25.83 bitrate=N/A speed=19.3x    frame=15281 fps=463 q=-0.0 size=N/A time=00:10:37.34 bitrate=N/A speed=19.3x    frame=15561 fps=464 q=-0.0 size=N/A time=00:10:49.02 bitrate=N/A speed=19.4x    frame=15853 fps=466 q=-0.0 size=N/A time=00:11:01.20 bitrate=N/A speed=19.4x    frame=16105 fps=466 q=-0.0 size=N/A time=00:11:11.71 bitrate=N/A speed=19.5x    frame=16390 fps=467 q=-0.0 size=N/A time=00:11:23.59 bitrate=N/A speed=19.5x    frame=16660 fps=468 q=-0.0 size=N/A time=00:11:34.86 bitrate=N/A speed=19.5x    frame=16950 fps=470 q=-0.0 size=N/A time=00:11:46.95 bitrate=N/A speed=19.6x    frame=17230 fps=471 q=-0.0 size=N/A time=00:11:58.63 bitrate=N/A speed=19.6x    frame=17513 fps=472 q=-0.0 size=N/A time=00:12:10.43 bitrate=N/A speed=19.7x    frame=17774 fps=472 q=-0.0 size=N/A time=00:12:21.32 bitrate=N/A speed=19.7x    frame=18010 fps=472 q=-0.0 size=N/A time=00:12:31.16 bitrate=N/A speed=19.7x    frame=18273 fps=473 q=-0.0 size=N/A time=00:12:42.13 bitrate=N/A speed=19.7x    frame=18549 fps=473 q=-0.0 size=N/A time=00:12:53.64 bitrate=N/A speed=19.7x    frame=18819 fps=474 q=-0.0 size=N/A time=00:13:04.90 bitrate=N/A speed=19.8x    frame=19091 fps=475 q=-0.0 size=N/A time=00:13:16.25 bitrate=N/A speed=19.8x    frame=19348 fps=475 q=-0.0 size=N/A time=00:13:26.97 bitrate=N/A speed=19.8x    frame=19613 fps=476 q=-0.0 size=N/A time=00:13:38.02 bitrate=N/A speed=19.8x    frame=19881 fps=476 q=-0.0 size=N/A time=00:13:49.20 bitrate=N/A speed=19.9x    frame=20153 fps=477 q=-0.0 size=N/A time=00:14:00.54 bitrate=N/A speed=19.9x    frame=20422 fps=477 q=-0.0 size=N/A time=00:14:11.76 bitrate=N/A speed=19.9x    frame=20684 fps=478 q=-0.0 size=N/A time=00:14:22.69 bitrate=N/A speed=19.9x    frame=20954 fps=478 q=-0.0 size=N/A time=00:14:33.95 bitrate=N/A speed=19.9x    frame=21209 fps=478 q=-0.0 size=N/A time=00:14:44.59 bitrate=N/A speed=19.9x    frame=21467 fps=479 q=-0.0 size=N/A time=00:14:55.35 bitrate=N/A speed=  20x    frame=21726 fps=479 q=-0.0 size=N/A time=00:15:06.15 bitrate=N/A speed=  20x    frame=22001 fps=479 q=-0.0 size=N/A time=00:15:17.62 bitrate=N/A speed=  20x    frame=22257 fps=480 q=-0.0 size=N/A time=00:15:28.30 bitrate=N/A speed=  20x    frame=22525 fps=480 q=-0.0 size=N/A time=00:15:39.48 bitrate=N/A speed=  20x    frame=22776 fps=480 q=-0.0 size=N/A time=00:15:49.94 bitrate=N/A speed=  20x    frame=23053 fps=481 q=-0.0 size=N/A time=00:16:01.50 bitrate=N/A speed=20.1x    frame=23324 fps=481 q=-0.0 size=N/A time=00:16:12.80 bitrate=N/A speed=20.1x    frame=23589 fps=482 q=-0.0 size=N/A time=00:16:23.85 bitrate=N/A speed=20.1x    frame=23862 fps=482 q=-0.0 size=N/A time=00:16:35.24 bitrate=N/A speed=20.1x    frame=24127 fps=482 q=-0.0 size=N/A time=00:16:46.29 bitrate=N/A speed=20.1x    frame=24375 fps=482 q=-0.0 size=N/A time=00:16:56.64 bitrate=N/A speed=20.1x    frame=24644 fps=483 q=-0.0 size=N/A time=00:17:07.86 bitrate=N/A speed=20.1x    frame=24878 fps=483 q=-0.0 size=N/A time=00:17:17.61 bitrate=N/A speed=20.1x    frame=25131 fps=483 q=-0.0 size=N/A time=00:17:28.17 bitrate=N/A speed=20.1x    frame=25390 fps=483 q=-0.0 size=N/A time=00:17:38.97 bitrate=N/A speed=20.1x    frame=25647 fps=483 q=-0.0 size=N/A time=00:17:49.69 bitrate=N/A speed=20.1x    frame=25911 fps=483 q=-0.0 size=N/A time=00:18:00.70 bitrate=N/A speed=20.2x    frame=26198 fps=484 q=-0.0 size=N/A time=00:18:12.67 bitrate=N/A speed=20.2x    frame=26462 fps=484 q=-0.0 size=N/A time=00:18:23.68 bitrate=N/A speed=20.2x    frame=26720 fps=484 q=-0.0 size=N/A time=00:18:34.44 bitrate=N/A speed=20.2x    frame=26992 fps=485 q=-0.0 size=N/A time=00:18:45.79 bitrate=N/A speed=20.2x    frame=27252 fps=485 q=-0.0 size=N/A time=00:18:56.63 bitrate=N/A speed=20.2x    frame=27411 fps=483 q=-0.0 size=N/A time=00:19:03.26 bitrate=N/A speed=20.2x    frame=27581 fps=482 q=-0.0 size=N/A time=00:19:10.35 bitrate=N/A speed=20.1x    frame=27842 fps=482 q=-0.0 size=N/A time=00:19:21.24 bitrate=N/A speed=20.1x    frame=28073 fps=482 q=-0.0 size=N/A time=00:19:30.87 bitrate=N/A speed=20.1x    frame=28292 fps=481 q=-0.0 size=N/A time=00:19:40.01 bitrate=N/A speed=20.1x    frame=28547 fps=481 q=-0.0 size=N/A time=00:19:50.64 bitrate=N/A speed=20.1x    frame=28784 fps=481 q=-0.0 size=N/A time=00:20:00.53 bitrate=N/A speed=20.1x    frame=29010 fps=481 q=-0.0 size=N/A time=00:20:09.95 bitrate=N/A speed=20.1x    frame=29240 fps=481 q=-0.0 size=N/A time=00:20:19.55 bitrate=N/A speed=  20x    frame=29489 fps=481 q=-0.0 size=N/A time=00:20:29.93 bitrate=N/A speed=  20x    frame=29706 fps=480 q=-0.0 size=N/A time=00:20:38.98 bitrate=N/A speed=  20x    frame=29951 fps=480 q=-0.0 size=N/A time=00:20:49.20 bitrate=N/A speed=  20x    frame=30209 fps=480 q=-0.0 size=N/A time=00:20:59.96 bitrate=N/A speed=  20x    frame=30431 fps=480 q=-0.0 size=N/A time=00:21:09.22 bitrate=N/A speed=  20x    frame=30638 fps=479 q=-0.0 size=N/A time=00:21:17.85 bitrate=N/A speed=  20x    frame=30853 fps=479 q=-0.0 size=N/A time=00:21:26.82 bitrate=N/A speed=  20x    frame=31077 fps=478 q=-0.0 size=N/A time=00:21:36.16 bitrate=N/A speed=19.9x    frame=31287 fps=478 q=-0.0 size=N/A time=00:21:44.92 bitrate=N/A speed=19.9x    frame=31493 fps=477 q=-0.0 size=N/A time=00:21:53.52 bitrate=N/A speed=19.9x    frame=31737 fps=477 q=-0.0 size=N/A time=00:22:03.69 bitrate=N/A speed=19.9x    frame=31949 fps=477 q=-0.0 size=N/A time=00:22:12.53 bitrate=N/A speed=19.9x    frame=32183 fps=476 q=-0.0 size=N/A time=00:22:22.29 bitrate=N/A speed=19.9x    frame=32423 fps=476 q=-0.0 size=N/A time=00:22:32.30 bitrate=N/A speed=19.9x    frame=32653 fps=476 q=-0.0 size=N/A time=00:22:41.90 bitrate=N/A speed=19.9x    frame=32878 fps=476 q=-0.0 size=N/A time=00:22:51.28 bitrate=N/A speed=19.8x    frame=33115 fps=476 q=-0.0 size=N/A time=00:23:01.17 bitrate=N/A speed=19.8x    frame=33357 fps=476 q=-0.0 size=N/A time=00:23:11.26 bitrate=N/A speed=19.8x    frame=33606 fps=476 q=-0.0 size=N/A time=00:23:21.65 bitrate=N/A speed=19.8x    frame=33861 fps=476 q=-0.0 size=N/A time=00:23:32.28 bitrate=N/A speed=19.8x    frame=34121 fps=476 q=-0.0 size=N/A time=00:23:43.13 bitrate=N/A speed=19.9x    [Parsed_psnr_10 @ 000002863564f340] PSNR y:49.278475 u:50.994445 v:51.117709 average:49.794057 min:39.201267 max:inf
[out#0/null @ 00000286344c4100] video:14697KiB audio:267508KiB subtitle:0KiB other streams:0KiB global headers:0KiB muxing overhead: unknown
frame=34204 fps=476 q=-0.0 Lsize=N/A time=00:23:46.59 bitrate=N/A speed=19.9x    
